<svg xmlns="http://www.w3.org/2000/svg" xmlns:xlink="http://www.w3.org/1999/xlink" width="700" height="303" viewBox="0 0 700 303">
    <defs>
        <path id="a" d="M.557 1.65h141.439v145.503H.557z"/>
        <path id="c" d="M0 303.523h699.72V.632H0z"/>
    </defs>
    <g fill="none" fill-rule="evenodd">
        <g transform="translate(557.724 154.946)">
            <mask id="b" fill="#fff">
                <use xlink:href="#a"/>
            </mask>
            <path fill="#8184C4" d="M.557 147.153C2.82 127.83 5.816 113.485 19.954 99.62c6.628-6.499 15.385-11.052 20.615-18.646 6.366-9.244 6.873-22.128 15.62-29.339 9.388-7.742 24.447-5.619 34.114-13.034 6.894-5.29 9.424-14.16 14.376-21.186 8.026-11.392 23.246-17.622 37.318-15.277-14.09 3.31-24.03 18.285-21.249 32.012 1.78 8.782 7.975 16.798 7.213 25.714-1.514 17.705-28.304 25.284-30.37 42.94-.561 4.806.9 9.61 1.1 14.441.623 15.02-12.933 29.241-28.504 29.907H.557z" mask="url(#b)"/>
        </g>
        <path fill="#575A8F" d="M663.604 201.17a248.566 248.566 0 0 0-36.992 43.538c-10.194 15.263-17.377 31.466-25.648 47.666-.745 1.461-3.19.44-2.71-1.102 10.85-34.768 37.727-66.321 65.3-90.148.033-.028.082.015.05.046"/>
        <path fill="#575A8F" d="M662.404 219.104c-3.893-.448-7.729-.22-11.485.932-3.895 1.197-6.552 3.653-10.12 5.292-.399.184-.959-.216-.66-.637 4.38-6.234 15.354-7.357 22.356-6.241.379.062.296.698-.091.654M653.758 238.532c-5.327-1.273-10.798-1.474-16.152-.197-4.879 1.166-8.663 3.801-12.992 6.047-.729.378-1.442-.51-.879-1.096 7.228-7.531 20.657-8.142 30.114-5.075.208.069.125.372-.091.32M644.195 264.29c-14.842-1.742-24.669 1.132-35.877 10.748-.667.571-1.847-.172-1.301-.969 7.288-10.638 25.282-15.772 37.371-10.46.33.146.177.724-.193.68M634.702 210.379c5.976 6.319 3.785 18.843-1.986 24.583-.214.213-.605-.064-.432-.324 2.572-3.872 4.43-7.596 4.57-12.302.127-4.33-1.617-7.566-2.901-11.536-.13-.406.45-.74.75-.421"/>
        <path fill="#575A8F" d="M623.55 224.567c3.054 8.161 2.724 19.005-2.221 26.454-.245.37-.9.143-.755-.307 2.874-9.094 4.154-16.432 2.177-25.934-.106-.507.617-.696.799-.213M606.312 240.172c5.323 11.454 4.583 24.149-.404 35.582-.454 1.045-2.248.601-1.795-.478 4.819-11.477 4.555-22.891 1.127-34.67-.174-.596.793-1.032 1.072-.434"/>
        <path fill="#E0E4F0" d="M125.628 300.445H375.61V91.6H125.628z"/>
        <path fill="#191C3C" d="M125.996 300.443h-.738V91.23H235.19v.738H125.996z"/>
        <path fill="#FFF" d="M135.288 301.377H375.61V119.17H135.288z"/>
        <path fill="#F7F7FE" d="M142.11 188.165h88.476V127.3H142.11z"/>
        <path fill="#E0E3FD" d="M142.11 256.084h88.476v-60.866H142.11z"/>
        <g transform="translate(0 -.61)">
            <path fill="#FFF" d="M152.405 105.586a2.481 2.481 0 1 1-4.962 0 2.481 2.481 0 0 1 4.962 0M166.8 105.586a2.481 2.481 0 1 1-4.962 0 2.481 2.481 0 0 1 4.962 0M181.196 105.586a2.481 2.481 0 1 1-4.962 0 2.481 2.481 0 0 1 4.962 0"/>
            <mask id="d" fill="#fff">
                <use xlink:href="#c"/>
            </mask>
            <path fill="#E0E4F0" d="M371.461 302.053h249.982V55.755H371.46z" mask="url(#d)"/>
            <path fill="#191C3C" d="M621.812 302.055h-.74V56.123H520.458v-.738h101.354z" mask="url(#d)"/>
            <path fill="#FFF" d="M371.461 303.155h240.322V88.27H371.46z" mask="url(#d)"/>
            <path fill="#F3F4FE" d="M516.482 297.172h88.477V99.806h-88.477z" mask="url(#d)"/>
            <path fill="#FFF" d="M594.667 72.085a2.481 2.481 0 1 0 4.962 0 2.481 2.481 0 0 0-4.962 0M580.27 72.085a2.48 2.48 0 1 0 4.96.001 2.48 2.48 0 0 0-4.96 0M565.874 72.085a2.48 2.48 0 1 0 4.96.001 2.48 2.48 0 0 0-4.96 0" mask="url(#d)"/>
            <g mask="url(#d)">
                <path fill="#8184C4" d="M82.164 214.317c-6.366-14.842-12.8-29.802-22.062-43.032-3.049-4.353-7.729-8.982-12.849-7.557-4.699 1.307-6.57 6.928-7.098 11.776-2.482 22.795 8.27 44.971 21.258 63.87a257.742 257.742 0 0 0 52.4 56.041l3.736 1.39c-11.94-27.83-23.445-54.655-35.385-82.488"/>
                <path fill="#575A8F" d="M110.943 289.96c-30.35-29.983-51.305-71.28-60.925-112.536-.343-1.474-2.574-.66-2.221.808 5.108 21.15 12.985 41.505 23.587 60.515 10.728 19.234 24.35 35.46 39.477 51.313.055.059.14-.042.082-.1"/>
                <path fill="#575A8F" d="M42.356 195.212c3.754 4.818 8.556 8.679 14.241 10.967.865.349 1.478-.934.617-1.32-5.395-2.429-10.045-5.802-13.752-10.434-.54-.676-1.646.093-1.106.787M51.011 215.41c3.514 5.19 8.822 11.714 14.662 14.313.386.171.642-.313.372-.59-2.195-2.269-5.027-3.955-7.377-6.093-2.658-2.415-5.071-5.084-7.412-7.804-.123-.144-.357.011-.245.174M65.203 240.513c2.902 3.62 6.865 6.33 10.984 8.403.578.289 1.009-.633.425-.912-4.183-1.996-7.64-4.743-11.08-7.797-.189-.167-.492.105-.329.306M61.181 191.557c-.186 7.19-.22 13.53-2.193 20.526-.355 1.253 1.609 1.578 1.979.36 1.957-6.48 3.063-14.48 1.383-21.14-.18-.712-1.154-.368-1.169.254M69.695 209.547c1.847 7.288 2.358 14.59.893 21.996-.201 1.017 1.406 1.307 1.582.286 1.33-7.633.896-15.236-1.956-22.472-.132-.335-.605-.15-.52.19M81.803 230.73c2.312 8.81 4.086 16.425 3.177 25.624-.148 1.504 2.174 1.935 2.324.421.861-8.715-.062-18.843-4.486-26.577-.345-.607-1.169-.053-1.015.531"/>
                <path fill="#8184C4" d="M103.571 287.582c-18.228-14.518-36.457-29.04-54.685-43.557-6.433-5.124-12.959-10.305-20.484-13.623-7.525-3.317-16.292-4.613-23.997-1.74-1.084.407-2.167.908-2.971 1.739-2.508 2.587-1.29 6.878.338 10.092 12.894 25.454 40.5 39.642 67.215 49.66 15.935 5.975 33.192 11.132 49.764 7.264 0 0-9.314-5.162-15.18-9.835"/>
                <path fill="#575A8F" d="M7.963 236.535c12.803 12.07 27.759 21.283 42.982 29.962 16.874 9.618 33.83 19.093 50.603 28.886 1.313.768 2.588-1.266 1.256-2-16.339-8.994-32.528-18.263-48.757-27.454-15.818-8.961-31.61-17.978-45.092-30.32-.638-.584-1.632.323-.992.926"/>
                <path fill="#575A8F" d="M11.432 249.677c5.734 1.903 11.524 3.961 17.43 5.272 1.4.311 2.096-1.75.677-2.157-5.841-1.685-11.936-2.654-17.912-3.739-.402-.072-.607.488-.195.624M32.924 266.648c3.895.533 7.791 1.067 11.686 1.598 3.841.523 7.827 1.405 11.708 1.113.75-.057 1.066-1.113.245-1.373-3.557-1.129-7.436-1.209-11.132-1.56l-12.439-1.183c-.914-.088-.952 1.286-.068 1.405M60.838 282.85c3.413-.354 6.758-.85 10.199-.656 2.826.164 5.67 1.344 8.45 1.09.764-.073.709-1.057.251-1.423-2.346-1.878-6.751-1.935-9.644-1.873-3.308.07-6.57.592-9.544 2.066-.461.228-.163.842.288.797"/>
                <path fill="#575A8F" d="M24.781 236.702c1.467 3.477 2.766 7.013 3.716 10.669.727 2.794.907 5.839 2.174 8.428.173.353.676.201.712-.155.337-3.294-1.07-6.8-2.043-9.918a99.008 99.008 0 0 0-3.534-9.56c-.295-.686-1.313-.145-1.025.536M42.855 250.474c2.673 4.594 5.008 9.982 8.377 14.089.227.275.614-.051.487-.347-2.094-4.86-5.795-9.385-8.64-13.86-.088-.133-.306-.023-.224.118M61.841 261.847c1.406 2.726 2.939 5.427 4.233 8.212 1.13 2.434 1.883 5.184 3.894 7.042.353.326.882.049.816-.427-.372-2.707-2.223-4.895-3.553-7.22-1.523-2.667-2.882-5.449-4.321-8.165-.36-.687-1.423-.133-1.069.558"/>
                <path fill="#8184C4" d="M115.735 184.882c-2.536-3.299-7.298-5.262-10.997-3.358-3.375 1.738-4.67 5.84-5.43 9.558-6.838 33.548 5.328 72.21 16.054 104.725l3.27 1.496c3.096-33.528 6.18-67.454 1.095-100.737-.628-4.113-1.455-8.385-3.992-11.684"/>
                <path fill="#575A8F" d="M115.926 285.061c-4.058-29.97-5.23-60.073-6.391-90.26-.038-1.004-1.62-1.066-1.556-.074 1.918 30.096 2.412 60.655 7.456 90.44.055.323.535.21.491-.106"/>
                <path fill="#575A8F" d="M101.744 204.082l3.354 6.587c.977 1.917 1.768 4.044 3.285 5.596.384.39 1.047.045.945-.495-.402-2.121-1.703-4.005-2.715-5.893-1.162-2.174-2.325-4.344-3.488-6.518-.473-.884-1.837-.172-1.381.723M102.452 221.131c1.86 4.581 3.411 10.071 6.207 14.152.23.334.695.169.657-.237-.463-4.942-3.588-10.17-6.196-14.264a.377.377 0 0 0-.668.35M104.472 242.169c.246 2.712 1.578 5.465 2.466 8.045.795 2.305 1.392 4.761 2.584 6.89.203.36.701.15.656-.237-.33-2.726-1.468-5.454-2.275-8.087-.717-2.332-1.19-4.87-2.447-6.966-.32-.537-1.037-.228-.984.355M117.289 215.323a31.432 31.432 0 0 0-5.113 7.996c-.994 2.218-2.576 5.471-2.02 7.932.106.468.7.535.963.167 1.417-1.973 1.668-5.103 2.57-7.4 1.12-2.856 2.588-5.595 4.176-8.219.213-.35-.284-.808-.576-.476M119.025 239.436c-1.032 2.956-1.891 5.917-2.71 8.937-.725 2.675-1.843 5.475-1.924 8.256-.017.558.83.916 1.113.347 1.31-2.64 1.666-5.81 2.326-8.671.674-2.924 1.271-5.807 1.734-8.772.051-.32-.44-.38-.539-.097"/>
            </g>
            <path fill="#231F20" d="M382.101 301.055h142.633V55.173H382.101zM232.977 301.055H375.61V92.208H232.977z" mask="url(#d)"/>
            <path fill="#E0E4F0" d="M238.882 303.155h279.73V1.002h-279.73z" mask="url(#d)"/>
            <path fill="#191C3C" d="M518.982 303.153h-.738V1.37H239.252v301.045h-.74V.632h280.47z" mask="url(#d)"/>
            <path fill="#FFF" d="M247.349 179.369h262.947V32.122H247.35zM247.349 294.516h262.947V187.793H247.35z" mask="url(#d)"/>
            <path fill="#FF8575" d="M472.146 68.394a2.552 2.552 0 0 1-2.551 2.552h-89.098a2.55 2.55 0 0 1 0-5.103h89.098a2.552 2.552 0 0 1 2.551 2.551" mask="url(#d)"/>
            <path fill="#B2B8FA" d="M453.055 80.607a2.551 2.551 0 0 1-2.551 2.552h-70.006a2.552 2.552 0 0 1 0-5.103h70.006a2.551 2.551 0 0 1 2.551 2.551M438.948 92.82a2.552 2.552 0 0 1-2.551 2.552h-55.9a2.55 2.55 0 0 1 0-5.103h55.9a2.552 2.552 0 0 1 2.551 2.551M427.047 105.033a2.551 2.551 0 0 1-2.551 2.552h-43.998a2.552 2.552 0 0 1 0-5.103h43.998a2.551 2.551 0 0 1 2.551 2.551M412.282 117.246a2.552 2.552 0 0 1-2.551 2.552h-29.233a2.552 2.552 0 0 1 0-5.103h29.233a2.552 2.552 0 0 1 2.551 2.551M371.011 68.001a1.142 1.142 0 1 1-2.284 0 1.142 1.142 0 0 1 2.284 0M371.011 80.493a1.14 1.14 0 1 1-2.282 0 1.142 1.142 0 0 1 2.282 0M371.011 92.985a1.14 1.14 0 1 1-2.282 0 1.142 1.142 0 0 1 2.282 0M371.011 105.476a1.142 1.142 0 1 1-2.284 0 1.142 1.142 0 0 1 2.284 0M371.011 117.968a1.14 1.14 0 1 1-2.282 0 1.142 1.142 0 0 1 2.282 0" mask="url(#d)"/>
            <path fill="#F0F1FE" d="M415.024 118.277h13.638v-2.111h-13.638zM428.76 106.089h13.638v-2.111H428.76zM440.751 94.308h13.636v-2.111h-13.636zM454.103 81.663h13.635V79.55h-13.635zM473.536 69.45h13.637v-2.112h-13.637zM368.217 129.525h3.305v-3.305h-3.305zM385.19 129.525h3.306v-3.305h-3.306zM402.162 129.525h3.305v-3.305h-3.305zM419.135 129.525h3.305v-3.305h-3.305zM436.108 129.525h3.304v-3.305h-3.304zM453.08 129.525h3.305v-3.305h-3.305zM470.053 129.525h3.304v-3.305h-3.304zM487.025 129.525h3.305v-3.305h-3.305z" mask="url(#d)"/>
            <path fill="#5361F0" d="M285.08 56.875h2.74v-2.74h-2.74zM285.08 86.328h2.74v-2.74h-2.74zM285.08 115.78h2.74v-2.74h-2.74z" mask="url(#d)"/>
            <path fill="#B2B8FA" d="M342.469 131.262h1.64V48.706h-1.64z" mask="url(#d)"/>
            <path fill="#F0F1FE" d="M292.809 57.645h32.877V53.2h-32.877zM292.809 62.566h32.877v-2.224h-32.877zM292.809 66.955h32.877v-2.221h-32.877zM292.809 71.345h15.938v-2.221H292.81zM292.809 87.215h32.877v-4.444h-32.877zM292.809 92.136h32.877v-2.221h-32.877zM292.809 96.526h32.877v-2.223h-32.877zM292.809 100.916h15.938v-2.222H292.81zM292.809 116.786h32.877v-4.445h-32.877zM292.809 121.707h32.877v-2.221h-32.877zM292.809 126.097h32.877v-2.222h-32.877zM292.809 130.486h15.938v-2.223H292.81z" mask="url(#d)"/>
            <path fill="#F9D8CC" d="M258.612 280.326H503.48c-.378 0 .584-55.082-.133-60.623-8.428 4.431-14.855 12.917-23.8 17.34-7.19 3.556-15.891 5.726-23.933 4.371-7.546-1.27-13.688-6.96-21.436-7.478-10.06-.675-16.874 7.522-24.062 13.148-10.09 7.896-22.885 17.474-35.882 19.454-8.387 1.279-15.153-2.471-20.364-8.78-6.752-8.177-10.2-15.606-21.65-17.177-8.843-1.214-18.965 1.03-26.068 6.566-8.774 6.839-14.01 18.075-24.083 22.79-3.572 1.674-7.588 2.347-11.514 2.029-2.57-.21-9.142-3.701-11.419-1.711-1.67 1.464-.525 7.83-.525 10.07" mask="url(#d)"/>
            <path fill="#FFF" d="M266.5 17.629a3.688 3.688 0 1 1-7.377-.001 3.688 3.688 0 0 1 7.376 0M283.638 17.629a3.688 3.688 0 1 1-7.376-.001 3.688 3.688 0 0 1 7.376 0M300.777 17.629a3.688 3.688 0 1 1-7.376-.001 3.688 3.688 0 0 1 7.376 0" mask="url(#d)"/>
            <path fill="#404BF2" d="M301.846 303.155h100.675v-35.827H301.846z" mask="url(#d)"/>
            <path fill="#FFF" d="M305.826 299.266h28.717v-28.05h-28.717zM338.466 279.757h60.866v-4.708h-60.866zM338.58 287.694h60.866v-4.71H338.58zM338.696 295.628h32.767v-4.709h-32.767z" mask="url(#d)"/>
            <path fill="#404BF2" d="M268.764 237.4h81.849v-37.234h-81.849z" mask="url(#d)"/>
            <path fill="#FFF" d="M276.735 211.982h43.952v-5.909h-43.952zM276.904 217.96h68.923v-1.956h-68.923zM276.904 222.88h68.923v-1.955h-68.923zM276.904 227.802h68.923v-1.956h-68.923zM276.906 232.724h43.16v-1.955h-43.16z" mask="url(#d)"/>
            <path fill="#5361F0" d="M243.835 295.643h7.192v-10.627h-7.192z" mask="url(#d)"/>
            <path fill="#404BF2" d="M191.258 243.226s54.335-3.833 59.45 0c0 0 7.35 2.078 5.592 14.222l-4.314 33.083h-9.11s-4.473-26.05.48-33.56l-38.354 9.056-13.744-22.8z" mask="url(#d)"/>
            <path fill="#B2B8FA" d="M241.758 292.288l-2.398 6.072v4.796h29.404v-1.328a2.568 2.568 0 0 0-1.973-2.5l-4.739-1.13-9.906-5.91h-1.758l-.8 1.758h-5.113l-.48-1.758h-2.237z" mask="url(#d)"/>
            <path fill="#191C3C" d="M239.36 300.597v2.559h29.405v-1.33c0-.44-.114-.861-.315-1.23h-29.09z" mask="url(#d)"/>
            <path fill="#5361F0" d="M176.237 281.74l-7.351-3.834v7.032l7.35 3.674z" mask="url(#d)"/>
            <path fill="#231F20" d="M211.235 242.035l-16.78 1.192s-.664 1.136-1.371 3.027l11.919 19.771 11.725-2.768-5.493-21.222z" mask="url(#d)"/>
            <path fill="#404BF2" d="M191.258 243.226s-6.446 10.948-.605 21.943c.382.721.755 1.45 1.055 2.208l8.5 21.554-26.848-9.908v9.27l22.023 12.447a22.84 22.84 0 0 0 10.22 2.415h5.4a8.568 8.568 0 0 0 7.096-3.767 3.74 3.74 0 0 0 .611-2.61l-8.275-53.552h-19.177z" mask="url(#d)"/>
            <path fill="#B2B8FA" d="M171.922 277.905l-9.749-2.717h-3.196l-2.064 19.905a4.54 4.54 0 0 0 .782 3.05l2.242 4.73h7.032l.232-.603c.364-.947.352-3.474-.033-4.413l-.84-2.052 5.594-7.192.64-1.838-1.759-2.48.18-5.296.94-1.094z" mask="url(#d)"/>
            <path fill="#191C3C" d="M162.494 300.956l-2.243-4.73a4.558 4.558 0 0 1-.781-3.053l1.867-17.984h-2.36l-2.062 19.903a4.552 4.552 0 0 0 .78 3.053l2.242 4.729h7.032l.231-.605a3.97 3.97 0 0 0 .253-1.313h-4.96z" mask="url(#d)"/>
            <path fill="#B2B8FA" d="M186.02 252.113s12.616-25.02 13.349-47.84c.108-3.396.817-6.743 2.234-9.833l3.136-6.84a2.328 2.328 0 0 1 2.673-1.29l13.308 3.278s6.286 11.92 7.167 20.943c.064.67-.036 1.339-.258 1.974-1.822 5.227-6.91 31.863-6.91 31.863-7.826.25-20.796 14.036-34.7 7.745" mask="url(#d)"/>
            <path fill="#5361F0" d="M227.4 182.12c-.74.67-1.69 1.14-2.604 1.51-1.887.771-3.595.583-5.617.583h-6.989v-4.463c0-2.846-.138-4.658-1.584-7.211-.51-.9-1.096-1.785-1.3-2.796-.365-1.818.566-3.616 1.467-5.236.615-1.104 1.14-2.83 2.307-3.195.539-.168 1.41 0 1.973 0h7.072c3.056 0 6.13 2.218 7.216 5.094.634 1.673.17 4.12.084 5.871a88.455 88.455 0 0 1-.588 6.718c-.063.502-.133 1.01-.304 1.487-.237.656-.639 1.191-1.132 1.639" mask="url(#d)"/>
            <path fill="#5361F0" d="M207.412 186.31s4.312-1.163 4.778-4.785h11.291v2.506s-2.995 3.22-2.762 5.557l-13.307-3.279z" mask="url(#d)"/>
            <path fill="#191C3C" d="M234.479 156.121c.024.95-.814 1.69-1.64 2.166-1.382.8-2.972 1.285-4.567 1.215-2.487-.112-4.71-1.526-7.12-2.154a11.53 11.53 0 0 0-5.513-.064c-.658.154-1.318.377-1.84.808-.25.209-.468.465-.76.607-.26.127-.558.154-.847.178-1.633.14-3.39.36-4.594 1.473-1.567 1.443-1.658 3.89-1.248 5.98.292 1.49.78 2.94 1.447 4.301.582 1.19 1.3 2.307 1.924 3.474a25.445 25.445 0 0 1 2.21 5.672l.362-.097c.626-1.986 1.252-3.974 1.88-5.962.35-1.114.73-2.275 1.565-3.09.835-.816 2.274-1.142 3.168-.39 1.432 1.21.5 4.066 2.115 5.018-.548-2.096 1.434-3.919 2.197-5.945.294-.78.432-1.664 1.007-2.265.793-.827 2.085-.816 3.229-.852 1.542-.05 3.143-.315 4.393-1.218 1.304-.94 2.074-2.48 2.408-4.05.335-1.572.28-3.198.224-4.805" mask="url(#d)"/>
            <path fill="#5361F0" d="M215.447 211.635l12.339 10.027a22.254 22.254 0 0 0 15.4 4.942l24.426-1.502 1.637.71c.747.324 1.551.489 2.363.489 1.01 0 2-.254 2.88-.742l2.337-1.296c.435-.24.833-.54 1.184-.891l2.221-2.218a4.154 4.154 0 0 0 1.22-2.94v-2.243l-3.037.543-5.35 1.798c-.997.678-2.25.86-3.397.492l-.213-.069 2.584-3.964h-1.72c-.68 0-1.338.227-1.871.65l-1.977 1.56c-.463.366-.82.85-1.032 1.4l-.597 1.555-18.067-1.567a24.44 24.44 0 0 1-13.213-5.315l-11.718-9.44-6.399 8.02z" mask="url(#d)"/>
            <path fill="#B2B8FA" d="M223.482 201.564l-8.971 11.244-6.981-5.573a7.192 7.192 0 0 1 8.97-11.242l6.982 5.571zM538.017 115.09v33.815l.017.017 23.86 23.923c6.115-6.1 9.905-14.527 9.932-23.841 0-.035.004-.067.004-.099 0-18.676-15.137-33.814-33.813-33.814" mask="url(#d)"/>
            <path fill="#FF8575" d="M512.498 124.964c-6.123 6.106-9.917 14.548-9.932 23.876l33.808.081V115.09c-9.32 0-17.758 3.773-23.876 9.874" mask="url(#d)"/>
            <path fill="#404BF2" d="M536.393 150.564h-.02l-33.808-.081c0 .02-.004.041-.004.064 0 18.674 15.139 33.813 33.813 33.813 9.322 0 17.762-3.772 23.878-9.872l-23.86-23.924z" mask="url(#d)"/>
            <path fill="#5361F0" d="M540.908 290.587H546v-5.575h-5.092zM597.723 286.39l-4.568 2.247-2.462-5.004 4.568-2.248z" mask="url(#d)"/>
            <path fill="#B2B8FA" d="M582.975 190.333l-8.487 18.426-17.72 26.67-7.979 51.4h-10.426l2.593-37.045a99.97 99.97 0 0 1 4.189-22.474l7.28-23.64 2.668-13.337h27.882z" mask="url(#d)"/>
            <path fill="#191C3C" d="M577.773 201.625l-24.196-3.714-1.152 5.758-1.26 4.091c2.704 7.027 5.498 16.804 5.688 27.541l17.636-26.54 3.284-7.136z" mask="url(#d)"/>
            <path fill="#5361F0" d="M593.224 134.206H582.56v-12.364c1.067 0 11.982-.243 12.014.055.044.358.192.698.222 1.056.084 1.01-.745 1.823-1.24 2.707-.905 1.618-.332 3.45-.332 5.198v3.348z" mask="url(#d)"/>
            <path fill="#404BF2" d="M580.55 128.023l14.304 3.637v2.667s4.718 7.558 5.334 11.396c1.298 8.085-13.04 22.145-17.213 44.61h-27.883s11.153-29.336 11.881-32.489c0 0 3.394-15.758 9.455-20.607 0 0 1.897-3.071 3.595-3.959 0 0 1.74-1.859.527-5.255" mask="url(#d)"/>
            <path fill="#404BF2" d="M580.987 160.57l-8.25-10.784 9.078-6.943a6.353 6.353 0 0 1 8.902 1.186l.533.694a6.352 6.352 0 0 1-1.183 8.903l-9.08 6.945z" mask="url(#d)"/>
            <path fill="#5361F0" d="M537.717 184.596l26.266-12.365 16.04-12.922-6.25-8.167-13.104 14.624-23.802 14.876.93 1.125-4.792.211c-2.049.09-7.573-.696-9.754 1.567l9.616 1.05h4.85z" mask="url(#d)"/>
            <path fill="#B2B8FA" d="M582.975 190.333s1.698 8.243 0 13.58c-1.7 5.332-4.122 8.44-4.122 8.44l1.565 15.336a100.657 100.657 0 0 0 8.569 31.572l10.733 23.51-9.957 2.967-20.018-35.956a37.266 37.266 0 0 1-2.618-5.837l-14.464-41.458 2.43-12.154h27.882z" mask="url(#d)"/>
            <path fill="#5361F0" d="M597.44 124.549h-15.413a4.383 4.383 0 0 1-4.384-4.382l-1.662-3.857a2.985 2.985 0 0 1-.9-3.889c1.49-2.693 3.783-6.975 4.322-8.7 1.239-3.958-1.76-5.357-1.76-5.357h19.797v26.185z" mask="url(#d)"/>
            <path fill="#191C3C" d="M553.8 193.208h30.71v-4.33H553.8z" mask="url(#d)"/>
            <path fill="#5361F0" d="M536.354 183.005l-3.185-3.077a1.126 1.126 0 0 1-.496-1.515c.281-.556.958-.778 1.514-.497l4.157 2.107c.555.281.777.96.497 1.516-.283.556-1.932 1.747-2.487 1.466" mask="url(#d)"/>
            <path fill="#2E35A8" d="M547.812 288.76h-9.277l-3.868 4.373h-5.732a13.307 13.307 0 0 0-11.868 7.283h30.745V288.76z" mask="url(#d)"/>
            <path fill="#FFF" d="M546 294.587a2.909 2.909 0 1 1-5.818.002 2.909 2.909 0 0 1 5.818-.002" mask="url(#d)"/>
            <path fill="#FF8575" d="M516.507 303.155h32.606v-2.74h-32.606z" mask="url(#d)"/>
            <path fill="#2E35A8" d="M599.51 284.324l-8.556 3.589-1.875 5.528-4.896.102c-2.189.048-4.369.524-6.305 1.542-1.882.989-2.527 2.102-2.78 5.538h15.683l13.237-5.553-4.509-10.746z" mask="url(#d)"/>
            <path fill="#FFF" d="M600.093 290.398a2.911 2.911 0 1 1-3.81-1.557 2.912 2.912 0 0 1 3.81 1.557" mask="url(#d)"/>
            <path fill="#FF8575" d="M574.39 302.962h17.878v-2.74h-17.877z" mask="url(#d)"/>
            <path fill="#FF8575" d="M605.556 297.267l-13.292 5.695-1.078-2.517 13.292-5.695zM577.55 115.09c3.19.07 4.872 2.032 7.082 2.971 1.05.446 3.163.992 3.794.046.85-1.273.188-4.41.067-5.907-.118-1.406-.378-4.974-.98-6.25-.635-1.33-1.807-2.716-3.213-3.37-.675-.313-1.405-.457-2.155-.344-1.096.165-1.618.615-2.783.19-1.166-.423-2.19-1.457-2.826-2.496-.389-.636-.689-1.37-.607-2.112.104-.94.818-1.726 1.656-2.172 2.081-1.104 3.775-.675 5.862.02.97.322 2.143.388 2.91-.287.28-.249.48-.577.719-.867 1.28-1.535 3.877-1.71 5.351-.359 1.497 1.372 1.92 2.49 3.893 3.147 1.294.433 2.906 1.034 3.712 2.212 1.347 1.968-.275 3.005-.609 4.843-.151.85.501 1.603.977 2.322.932 1.412 1.29 5.346.972 7.006-.148.78-.47 1.573-1.106 2.049-1.478 1.102-1.296 2.762-1.31 4.532-.009 1.466 1.268 2.136 1.325 3.44.112 2.477-3.291 2.568-4.771 1.445-1.35-1.021-1.707-2.867-1.965-4.54-.093-.601-.186-1.21-.116-1.812.125-1.064.744-2 1.108-3.008.309-.856.442-2.041-.207-2.787-.675-.774-1.867-.988-2.72-.41-1.025.693-.94 1.806-.886 2.814.083 1.559.095 3.22.212 4.818.175 2.402 1.068 5.613-1.51 7.156-2.26 1.29-4.321.542-6.765.493-1.178-.023-2.426-.067-3.416-.704-1.265-.814-1.795-2.368-2.235-3.805-.3-.981-.603-1.96-.903-2.94-.284-.928-.57-1.877-.54-2.844.032-.972 1.014-2.51 1.984-2.49" mask="url(#d)"/>
            <path fill="#5361F0" d="M444.61 293.46h6.311v-8.674h-6.311z" mask="url(#d)"/>
            <path fill="#E66333" d="M442.525 294.148c-2.422 0-4.397 2.24-4.681 5.118.821-1.728 2.331-2.903 4.08-2.903h7.025l.601-2.215h-7.025z" mask="url(#d)"/>
            <path fill="#FF8575" d="M452.492 301.986h-10.881v-7.96a2.05 2.05 0 0 1 2.05-2.049h6.782c1.133 0 2.05.916 2.05 2.049v7.96z" mask="url(#d)"/>
            <path fill="#191C3C" d="M452.913 303.155h-14.501a1.169 1.169 0 0 1 0-2.335h14.5a1.167 1.167 0 0 1 0 2.335" mask="url(#d)"/>
            <path fill="#5361F0" d="M436.79 293.46h6.312v-8.674h-6.311z" mask="url(#d)"/>
            <path fill="#404BF2" d="M460.23 177.503s7.685-.5 1.032 28.632c-4.075 17.843-4.765 28.539-4.877 31.278a32.958 32.958 0 0 1-.116 1.675l-4.68 49.196h-10.058l1.837-50.425V171.7l16.862 5.803z" mask="url(#d)"/>
            <path fill="#231F20" d="M429.024 177.503s-7.685-.5-1.032 28.632c4.075 17.843 4.765 28.539 4.877 31.278.025.563.063 1.114.116 1.675l4.68 49.196h6.964s1.68-38.848 1.548-51.457c-.177-16.538-2.808-65.127-2.808-65.127l-14.345 5.803z" mask="url(#d)"/>
            <path fill="#404BF2" d="M427.475 177.503s-7.685-.5-1.03 28.632c4.075 17.843 4.764 28.539 4.877 31.278.025.563.063 1.114.116 1.675l4.68 49.196h7.738l.484-50.425V171.7l-16.865 5.803z" mask="url(#d)"/>
            <path fill="#5361F0" d="M473.74 189.788v4.826c0 3.278-1.353 6.412-3.738 8.66l-3.033 2.86a7.592 7.592 0 0 1 2.083-6.821l.916-.917.097-2.327-1.81 2.234c-.32.47-1.057.247-1.059-.324l-.034-8.191h6.577z" mask="url(#d)"/>
            <path fill="#FF8575" d="M439.854 112.56l-8.482-2.185a12.502 12.502 0 0 1-9.026-9.146l-4.418-18.128h-5.674l2.796 24.552a13.56 13.56 0 0 0 4.142 8.307l17.566 16.663 3.096-20.063zM463.776 117.534l4.57 3.529a16.597 16.597 0 0 1 6.458 13.14l-.774 56.65h-7.351l-2.144-29.97-.759-19.168-7.35-10.64 7.35-13.54z" mask="url(#d)"/>
            <path fill="#FF8575" d="M463.776 141.716s-8.123 16.25-.967 37.335h-38.301s8.639-23.167 6.158-52.208l25.76 4.232 7.35 10.64z" mask="url(#d)"/>
            <path fill="#5361F0" d="M446.125 90.157l-.601.277c-1.694-.078-3.16 1.264-3.923 2.777-.761 1.514-1.017 3.227-1.575 4.826-.39 1.125-.93 2.195-1.267 3.337-1.146 3.885.402 8.415 3.69 10.785.385.279.887.537 1.312.322.226-.114.37-.34.505-.554l2.855-4.57c.918-1.468 1.848-2.965 2.29-4.638 1.138-4.297-1.112-8.686-3.286-12.562" mask="url(#d)"/>
            <path fill="#191C3C" d="M468.169 122.178c.009-.996.083-2.023-.257-2.962-.3-.829-.893-1.51-1.409-2.227-2.37-3.306-3.062-7.493-3.688-11.513-.55-3.526-1.836-9.74-1.836-9.74-1.038-4.984-5.281-9.463-10.965-8.814a7.706 7.706 0 0 0-3.215 1.106c-4.82 3.012-3.563 8.614-5.413 13.017-1.43 3.405-4.763 6.374-4.173 10.02.203 1.261.884 2.438.878 3.716-.017 2.694-2.92 4.392-4.029 6.845-1.654 3.646.96 7.74 1.186 11.737.081 1.453-.156 2.944.239 4.346.396 1.4 1.753 2.707 3.164 2.35 1.387-.351 2.068-2.064 3.437-2.474 1.778-.53 3.29 1.372 4.041 3.068.751 1.698 1.707 3.752 3.557 3.904 1.62.135 2.897-1.345 3.663-2.781.763-1.434 1.423-3.089 2.86-3.85 2.308-1.219 5.878.266 7.335-1.898.404-.602.508-1.349.71-2.047.456-1.59 1.507-2.99 2.873-3.923 1.186-.808 1.668-2.282 1.406-3.692a21.847 21.847 0 0 1-.364-4.188" mask="url(#d)"/>
            <path fill="#5361F0" d="M411.999 80.595l-.941-4.427a1.726 1.726 0 0 1 .59-1.693l2.288-1.876h1.737s-.9-4.78-.55-7.609h.55l3.032 10.151v5.841l-.998 2.12h-4.803l-.905-2.507z" mask="url(#d)"/>
            <path fill="#FF8575" d="M440.691 301.986h-11.763v-.721a7.47 7.47 0 0 1 7.469-7.469h4.294v8.19z" mask="url(#d)"/>
            <path fill="#E66333" d="M433.667 294.148c-2.423 0-4.398 2.24-4.682 5.118.821-1.728 2.331-2.903 4.08-2.903h7.025l.601-2.215h-7.024z" mask="url(#d)"/>
            <path fill="#191C3C" d="M444.793 300.819h-.421v-7.247c0-.882-.715-1.595-1.596-1.595h-7.69c-.882 0-1.596.713-1.596 1.595v7.247h-3.2a1.167 1.167 0 0 0 0 2.335h14.503a1.167 1.167 0 0 0 0-2.335" mask="url(#d)"/>
            <path fill="#FF8575" d="M443.633 301.986h-10.881v-7.96a2.05 2.05 0 0 1 2.05-2.049h6.782c1.133 0 2.05.916 2.05 2.049v7.96z" mask="url(#d)"/>
            <path fill="#191C3C" d="M444.054 303.155h-14.501a1.169 1.169 0 0 1 0-2.335h14.5a1.167 1.167 0 0 1 0 2.335" mask="url(#d)"/>
            <path fill="#5361F0" d="M115.748 296.58h16.743l-6.068-4.204-1.347-3.887h-9.328zM57.2 288.827l14.559 7.258-2.901-6.787.926-4.009-7.898-4.962z" mask="url(#d)"/>
            <path fill="#404BF2" d="M57.426 285.624l-3.314 6.363a2.296 2.296 0 0 0 1.297 3.234l20.885 7.091h9.449s1.01-.842 1.349-2.19l-10.798-5.058-4.877-6.742-4.572 3.202-6.498-2.191-2.921-3.709z" mask="url(#d)"/>
            <path fill="#191C3C" d="M53.85 291.187l-1.07 1.867a1.343 1.343 0 0 0 .632 1.901l20.532 8.2h10.113a3.036 3.036 0 0 0 3.035-3.034h-14.16l-19.082-8.934z" mask="url(#d)"/>
            <path fill="#404BF2" d="M114.343 291.44v7.375a2.487 2.487 0 0 0 2.487 2.485h23.303l9.775-1.684a5.098 5.098 0 0 0-3.194-2.96l-10.12-3.194-7.587-4.972-2.88 6.068h-8.407l-3.377-3.119z" mask="url(#d)"/>
            <path fill="#191C3C" d="M116.714 303.155h29.654a3.54 3.54 0 0 0 3.54-3.54H113.67v.495a3.045 3.045 0 0 0 3.044 3.045M70.36 197.3l-.975 7.265a54.404 54.404 0 0 0 .5 17.5l3.89 20.223a22.703 22.703 0 0 1-1.455 13.298l-12.972 27.78 10.498 4.84 17.982-32.455a9.434 9.434 0 0 0 1.133-3.565l5.761-53.226-24.362-1.66z" mask="url(#d)"/>
            <path fill="#191C3C" d="M110.78 201.73s5.537 16.898 8.673 36.541c3.172 19.855 3.955 42.5 6.461 50.385h-11.058s-7.493-23.684-8.138-41.56c-.112-3.128-1.172-6.133-3.005-8.67-6.49-8.993-21.193-30.24-20.618-37.437l27.685.74z" mask="url(#d)"/>
            <path fill="#5361F0" d="M92.97 154.85l-16.797.078 2.677-43.944h9.984c1.22 0 2.538-.452 3.699-.32-.915.513-1.478 1.547-1.696 2.607-.245 1.192-.197 3.385-.135 4.709.06 1.326 4.02 7.318 4.02 8.54 0 1.446-1.753 26.885-1.753 28.33" mask="url(#d)"/>
            <path fill="#FFF" d="M78.198 121.7c-.791 13.008-2.024 33.227-2.024 33.227l16.796-.076c0-1.446 1.753-26.885 1.753-28.33 0-.507-.68-1.829-1.478-3.299-5.84 2.726-11.966.19-15.047-1.521" mask="url(#d)"/>
            <path fill="#FFF" d="M39.354 204.865h115.35V154.48H39.354z" mask="url(#d)"/>
            <path fill="#5361F0" d="M94.04 110.577c-1.165 1.318-2.637 2.238-4.363 2.367-3.857.289-7.835 0-11.707 0V92.457h18.826c-.254 0 .292 9.612.243 10.575-.13 2.504-1.195 5.502-3 7.545" mask="url(#d)"/>
            <path fill="#FF8575" d="M98.442 90.007c-.86-1.121-2.464-1.33-3.875-1.235-1.412.095-2.869.397-4.21-.05-1.394-.462-2.56-1.7-4.027-1.655-1.988.062-3.242 2.426-5.211 2.707-1.474.208-3.022-.814-4.4-.253-1.327.543-1.71 2.25-1.635 3.683.078 1.434.41 2.946-.19 4.25-.475 1.038-1.498 1.816-1.709 2.94-.396 2.088 2.163 3.62 2.463 5.726.186 1.285-.507 2.516-.729 3.794-.19 1.091.26 2.472 1.201 2.823l-.024-.004c.93.79 2.441.435 3.297-.434.857-.869 1.223-2.094 1.559-3.267.284-.992.57-2 .561-3.031-.017-1.937-1.032-4.058.02-5.684.715-.39 1.606.249 1.912 1.004.303.755.261 1.607.504 2.383.241.777.975 1.536 1.762 1.331.972-.252 1.065-1.588.905-2.58-.159-.99-.208-2.287.712-2.693.71-.315 1.646.138 2.263-.336.55-.423.444-1.264.635-1.93.313-1.086 1.465-1.714 2.57-1.94 1.109-.226 2.268-.175 3.351-.497 2.083-.622 3.618-3.326 2.295-5.052" mask="url(#d)"/>
            <path fill="#404BF2" d="M78.85 113.817l-1.654.861-1.032 1.744a11.198 11.198 0 0 1-5.039 4.513l-1.76.793a13.925 13.925 0 0 0-7.812 9.401l-3.187 13.088a71.158 71.158 0 0 0-1.21 27.535l3.3 21.671h8.983l.569-32.264c.03-1.7.2-3.396.512-5.069l.212-1.136 20.976-.105s-2.076-26.29-6.628-29.735l1.868-1.43-4.158-1.767a4.207 4.207 0 0 1-2.483-3.071c-.103-.527-.205-1.034-.336-1.446l-1.121-3.583z" mask="url(#d)"/>
            <path fill="#404BF2" d="M90.702 117.98l1.83.88 6.685 4.265a18.395 18.395 0 0 1 5.818 5.915c3.656 5.98 10.205 17.834 9.804 25.441l-23.132.37s-1.447-17.703.848-25.33a9.748 9.748 0 0 0-.025-5.771l-1.828-5.77z" mask="url(#d)"/>
            <path fill="#5361F0" d="M94.15 155.104l.2-2.066a2.395 2.395 0 0 1 2.478-2.11l.46.832 8.537-.145a1.811 1.811 0 0 1 1.791 2.245l-.39 1.593a1.816 1.816 0 0 1-1.765 1.383h-.698a2.426 2.426 0 0 1-2.426 2.443H99.16a2.426 2.426 0 0 1-2.426-2.426v-1.956l-2.584.207z" mask="url(#d)"/>
            <path fill="#F5F7F9" d="M49.455 198.405h3.692v-37.464h-3.692zM56.036 198.405h3.692v-37.464h-3.692z" mask="url(#d)"/>
            <path fill="#E6E7E8" d="M62.617 198.405h3.691v-37.464h-3.691z" mask="url(#d)"/>
            <path fill="#F5F7F9" d="M69.198 198.405h3.691v-37.464h-3.691zM75.776 198.405h3.692v-37.464h-3.692zM82.357 198.405h3.692v-37.464h-3.692zM88.936 198.405h3.692v-37.464h-3.692zM95.517 198.405h3.691v-37.464h-3.691zM102.098 198.405h3.691v-37.464h-3.691zM108.678 198.405h3.692v-37.464h-3.692zM115.257 198.405h3.692v-37.464h-3.692z" mask="url(#d)"/>
            <path fill="#B2B8FA" d="M49.455 198.405h3.692v-9.365h-3.692zM56.036 198.405h3.692v-18.733h-3.692z" mask="url(#d)"/>
            <path fill="#E03C00" d="M62.617 198.405h3.691v-18.733h-3.691z" mask="url(#d)"/>
            <path fill="#B2B8FA" d="M69.198 198.405h3.691v-30.63h-3.691zM75.776 198.405h3.692v-24.361h-3.692zM82.357 198.405h3.692v-8.489h-3.692zM88.936 198.405h3.692v-24.361h-3.692zM95.517 198.405h3.691V187.15h-3.691zM102.098 198.405h3.691v-18.733h-3.691zM108.678 198.405h3.692v-25.837h-3.692zM115.257 198.405h3.692v-29.343h-3.692z" mask="url(#d)"/>
            <path fill="#404BF2" d="M78.85 113.817l-1.654.861-2.836 4.798-4.995 2.252a13.925 13.925 0 0 0-7.812 9.401l-3.187 13.088a71.158 71.158 0 0 0-1.21 27.535l3.3 21.671h8.983l.569-32.264c.03-1.7 1.682-11.354 1.682-11.354l7.16-35.988z" mask="url(#d)"/>
            <path fill="#5361F0" d="M62.179 193.423l-.862 11.936a3.417 3.417 0 0 0 2.499 2.62l.332.085 6.833.482a3.223 3.223 0 0 0 2.934-1.47l.503-.783c.444-.69.68-1.493.68-2.313v-1.472a6.047 6.047 0 0 0-1.994-4.486l-4.282-3.86v-.739h-6.643z" mask="url(#d)"/>
            <path fill="#F3B199" d="M123.33 166.663h23.992v-3.692h-23.991z" mask="url(#d)"/>
            <path fill="#F0F1FE" d="M123.33 175.152h23.992v-1.846h-23.991zM123.33 179.674h23.992v-1.846h-23.991zM123.33 184.195h23.992v-1.846h-23.991zM123.329 188.717h11.997v-1.845h-11.997z" mask="url(#d)"/>
            <path fill="#191C3C" d="M61.769 303.523h218.18v-.74H61.769zM53.393 303.523h5.424v-.74h-5.424zM420.787 303.523H653.97v-.74H420.787z" mask="url(#d)"/>
        </g>
    </g>
</svg>
